<?xml version="1.0" standalone="no"?><!DOCTYPE svg PUBLIC "-//W3C//DTD SVG 1.1//EN" "http://www.w3.org/Graphics/SVG/1.1/DTD/svg11.dtd"><svg t="1590549163934" class="icon" viewBox="0 0 1024 1024" version="1.1" xmlns="http://www.w3.org/2000/svg" p-id="2993" width="32" height="32" xmlns:xlink="http://www.w3.org/1999/xlink"><defs><style type="text/css"></style></defs><path d="M989.354667 426.154667c-5.729524-30.305524-24.234667-49.90781-47.152762-49.90781-0.292571 0-0.585143 0-0.75581 0l-4.217905 0c-66.243048 0-120.149333-53.906286-120.149333-120.149333 0-21.504 10.361905-45.592381 10.459429-45.81181 11.873524-26.721524 2.730667-59.489524-21.211429-76.214857l-1.462857-1.024-121.758476-67.632762-1.536-0.682667c-7.92381-3.437714-16.603429-5.193143-25.795048-5.193143-18.846476 0-37.351619 7.558095-49.542095 20.21181-13.360762 13.775238-59.440762 53.126095-94.866286 53.126095-35.742476 0-82.115048-40.131048-95.524571-54.150095-12.239238-12.897524-30.915048-20.601905-49.93219-20.601905-9.020952 0-17.529905 1.682286-25.33181 5.022476l-1.584762 0.658286-126.049524 69.241905L211.431619 134.095238C187.392 150.79619 178.200381 183.53981 190.073905 210.236952c0.097524 0.24381 10.48381 24.210286 10.48381 45.884952 0 66.243048-52.370286 120.149333-118.613333 120.149333L77.775238 376.271238c-0.292571 0-0.585143 0-0.853333 0-22.893714 0-41.374476 19.577905-47.104 49.90781-0.414476 2.218667-10.24 54.930286-10.24 96.134095s9.825524 93.915429 10.24 96.134095c5.729524 30.305524 24.234667 49.90781 47.152762 49.90781 0.292571 0 0.585143 0 0.75581 0l4.217905 0c66.243048 0 118.613333 53.906286 118.613333 120.149333 0 21.528381-10.361905 45.592381-10.459429 45.81181-11.873524 26.697143-2.755048 59.465143 21.187048 76.239238l1.414095 0.999619 119.442286 66.80381 1.511619 0.658286c7.92381 3.486476 16.579048 5.241905 25.721905 5.241905 19.090286 0 37.766095-7.875048 49.90781-21.089524 16.969143-18.432 67.559619-56.490667 101.546667-56.490667 36.815238 0 79.433143 42.666667 93.062095 57.61219 12.166095 13.433905 30.96381 21.455238 50.249143 21.455238l0 0c8.97219 0 17.456762-1.706667 25.258667-5.071238l1.560381-0.658286 123.806476-68.437333 1.462857-1.024c23.990857-16.725333 33.158095-49.468952 21.333333-76.117333-0.097524-0.24381-10.50819-24.527238-10.50819-45.909333 0-66.243048 53.906286-120.149333 120.149333-120.149333l4.096 0c0.26819 0 0.536381 0 0.804571 0 22.942476 0 41.472-19.577905 47.201524-49.883429 0.097524-0.536381 10.264381-53.906286 10.264381-96.158476C999.594667 480.889905 989.769143 428.373333 989.354667 426.154667zM922.575238 599.917714c-98.206476 7.533714-174.470095 89.453714-174.470095 188.562286 0 28.501333 9.337905 56.027429 13.945905 67.85219l-108.519619 59.977143c-4.681143-4.973714-20.48-21.162667-42.349714-37.400381-36.864-27.37981-72.167619-41.276952-104.911238-41.276952-32.426667 0-67.462095 13.628952-104.106667 40.496762-21.552762 15.798857-37.449143 31.841524-42.154667 36.717714l-104.472381-58.416762c4.608-11.824762 13.994667-39.424 13.994667-67.949714 0-99.108571-74.727619-181.028571-172.958476-188.562286-2.389333-13.970286-4.998095-49.785905-4.998095-77.604571 0-27.769905 2.584381-63.634286 4.998095-77.604571 98.230857-7.533714 172.958476-89.453714 172.958476-188.562286 0-28.452571-9.337905-55.978667-13.921524-67.803429l111.177143-61.049905 0 0c3.998476 4.096 20.041143 19.992381 42.179048 35.766857 36.181333 25.795048 69.095619 38.863238 100.864 38.863238 31.451429 0 67.145143-12.824381 103.082667-38.107429 21.991619-15.481905 37.961143-31.085714 41.959619-35.108571 0 0 0.024381 0 0.024381 0l107.178667 59.538286c-4.608 11.824762-13.970286 39.399619-13.970286 67.900952 0 99.108571 76.263619 181.028571 174.470095 188.562286 2.389333 14.019048 8.045714 49.93219 8.045714 77.604571C930.620952 550.083048 924.988952 585.923048 922.575238 599.917714zM509.732571 347.818667c-95.841524 0-170.788571 77.970286-170.788571 173.83619s76.458667 178.41981 172.30019 178.41981c95.865905 0 169.276952-82.553905 169.276952-178.41981S605.598476 347.818667 509.732571 347.818667zM506.684952 626.517333c-57.807238 0-94.183619-47.030857-94.183619-104.862476 0-57.807238 36.376381-104.862476 94.183619-104.862476 57.831619 0 104.862476 47.030857 104.862476 104.862476C611.547429 579.486476 564.516571 626.517333 506.684952 626.517333z" p-id="2994"></path></svg>